<svg version="1.2" xmlns="http://www.w3.org/2000/svg" viewBox="0 0 20 17" width="20" height="17">
	<title>basket</title>
	<style>
		.s0 { fill: #ffffff } 
	</style>
	<path id="Forma 1 copy" class="s0" d="m7.4 13.8c-0.9 0-1.7 0.7-1.7 1.6 0 0.9 0.8 1.6 1.7 1.6 0.8 0 1.6-0.7 1.6-1.6 0-0.9-0.8-1.6-1.6-1.6zm7 0c-0.9 0-1.6 0.7-1.6 1.6 0 0.9 0.7 1.6 1.6 1.6 0.9 0 1.7-0.7 1.7-1.6 0-0.9-0.8-1.6-1.7-1.6zm4.1-8.9h-9c-0.4 0-0.8 0.4-0.8 0.8 0 0.5 0.4 0.8 0.8 0.8h8l-0.5 1.7h-8.1c-0.4 0-0.8 0.4-0.8 0.8 0 0.4 0.4 0.7 0.8 0.7h7.6l-0.5 1.6h-9.1l-0.6-4.8-0.5-4.6c-0.1-0.4-0.4-0.7-0.7-0.8l-3.9-1c-0.5-0.1-1 0.2-1.1 0.7-0.1 0.5 0.2 1 0.7 1.1l3.2 0.8 1.3 9.4c0 0 0 1.1 1 1.1h10.1c0.8 0 1-0.8 1-0.8l2-5.9c0 0 0.6-1.6-0.9-1.6z"/>
</svg>