<svg version="1.2" xmlns="http://www.w3.org/2000/svg" viewBox="0 0 26 22" width="26" height="22">
	<title>basket</title>
	<style>
		.s0 { fill: #ff5816 } 
	</style>
	<path id="Forma 1" class="s0" d="m9.6 17.8c-1.2 0-2.2 1-2.2 2.1 0 1.2 1 2.1 2.2 2.1 1.1 0 2.1-0.9 2.1-2.1 0-1.1-1-2.1-2.1-2.1zm9.2 0c-1.2 0-2.1 1-2.1 2.1 0 1.2 0.9 2.1 2.1 2.1 1.1 0 2.1-0.9 2.1-2.1 0-1.1-1-2.1-2.1-2.1zm5.3-11.4h-11.7c-0.6 0-1.1 0.4-1.1 1 0 0.6 0.5 1.1 1.1 1.1h10.3l-0.6 2.2h-10.5c-0.6 0-1 0.4-1 0.9 0 0.6 0.4 1 1 1h9.9l-0.6 2.1h-11.9l-0.8-6.2-0.7-6.1c-0.1-0.5-0.4-0.9-0.9-1l-5-1.2c-0.6-0.2-1.3 0.2-1.4 0.8-0.2 0.6 0.2 1.3 0.8 1.4l4.2 1.1 1.7 12.2c0 0 0 1.4 1.3 1.4h13.1c1.1 0 1.3-1.1 1.3-1.1l2.6-7.6c0 0 0.8-2-1.1-2z"/>
</svg>