<svg version="1.2" xmlns="http://www.w3.org/2000/svg" viewBox="0 0 15 20" width="15" height="20">
	<title>comparison</title>
	<style>
		.s0 { fill: #499c54 } 
	</style>
	<path id="Shape 1" fill-rule="evenodd" class="s0" d="m0.1 10.7q-0.1-1.6 0.3-3c0.8-3.1 3.6-5.4 6.9-5.5v-2c0-0.1 0.1-0.2 0.2-0.1l4 3.1c0.1 0 0.1 0.1 0 0.2l-4 3.1c-0.1 0-0.2 0-0.2-0.1v-2.1c-2.2 0-4 1.4-4.8 3.4q-0.5 1.1-0.4 2.4c0 1.2 0.5 2.3 1.1 3.1 0.4 0.5 0.3 1.2-0.1 1.5-0.5 0.4-1.1 0.3-1.4-0.2-0.9-1.1-1.4-2.4-1.6-3.8zm11.7-3.9c0.6 0.8 1.1 1.9 1.1 3.1 0.1 0.9-0.1 1.7-0.4 2.4-0.8 2-2.6 3.4-4.8 3.4v-2.1c0-0.1-0.1-0.1-0.2-0.1l-4 3.1c-0.1 0.1-0.1 0.2 0 0.2l4 3.1c0.1 0.1 0.2 0 0.2-0.1v-2c3.3-0.1 6.1-2.4 6.9-5.5q0.4-1.4 0.3-3c-0.2-1.4-0.7-2.7-1.6-3.8-0.3-0.5-0.9-0.6-1.3-0.2-0.5 0.3-0.6 1-0.2 1.5z"/>
</svg>