<svg version="1.2" xmlns="http://www.w3.org/2000/svg" viewBox="0 0 22 22" width="22" height="22">
	<title>logo-srch</title>
	<style>
		.s0 { fill: #ff5816 } 
	</style>
	<path id="поиск" fill-rule="evenodd" class="s0" d="m21.7 20l-5.4-5.4c1.4-1.6 2.1-3.6 2.1-5.7 0-4.9-4.1-8.9-9.2-8.9-5.1 0-9.2 4-9.2 8.9 0 4.9 4.1 8.9 9.2 8.9 1.9 0 3.7-0.6 5.3-1.6l5.5 5.4q0.3 0.4 0.8 0.4 0.5 0 0.9-0.3c0.4-0.5 0.4-1.2 0-1.7zm-12.5-17.7c3.8 0 6.8 3 6.8 6.6 0 3.6-3 6.5-6.8 6.5-3.7 0-6.8-2.9-6.8-6.5 0-3.6 3.1-6.6 6.8-6.6z"/>
</svg>