<svg version="1.2" xmlns="http://www.w3.org/2000/svg" viewBox="0 0 25 25" width="25" height="25">
	<title>ruble</title>
	<style>
		.s0 { fill: #445667 } 
	</style>
	<path id="Forma 1" fill-rule="evenodd" class="s0" d="m20.8 4.2c-2.1-2.1-5.1-3.4-8.3-3.4-3.2 0-6.2 1.3-8.3 3.4-2.1 2.1-3.4 5.1-3.4 8.3 0 3.2 1.3 6.2 3.4 8.3 2.1 2.1 5.1 3.4 8.3 3.4 3.2 0 6.2-1.3 8.3-3.4 2.1-2.1 3.4-5.1 3.4-8.3 0-3.2-1.3-6.2-3.4-8.3zm0.5-0.5c2.3 2.2 3.7 5.3 3.7 8.8 0 3.5-1.4 6.6-3.7 8.8-2.2 2.3-5.3 3.7-8.8 3.7-3.5 0-6.6-1.4-8.8-3.7-2.3-2.2-3.7-5.3-3.7-8.8 0-3.5 1.4-6.6 3.7-8.8 2.2-2.3 5.3-3.7 8.8-3.7 3.5 0 6.6 1.4 8.8 3.7zm-9.2 14.3c0.2 0 0.4 0.1 0.4 0.4 0 0.2-0.2 0.4-0.4 0.4h-3.1c-0.2 0-0.4-0.2-0.4-0.4 0-0.3 0.2-0.4 0.4-0.4h1.2v-2.4h-1.2c-0.2 0-0.4-0.1-0.4-0.4 0-0.2 0.2-0.4 0.4-0.4h1.2v-0.7h-1.2c-0.2 0-0.4-0.2-0.4-0.4 0-0.2 0.2-0.4 0.4-0.4h1.2v-5.5h-1.2c-0.2 0-0.4-0.2-0.4-0.4 0-0.2 0.2-0.4 0.4-0.4h4.7c0.9 0 1.8 0.4 2.4 1l0.1 0.1c0.6 0.6 1 1.5 1 2.4 0 1-0.4 1.9-1 2.5-0.7 0.7-1.6 1.1-2.5 1.1q0 0 0 0 0 0 0 0h-2.8v0.7h3.6c0.2 0 0.3 0.2 0.3 0.4 0 0.3-0.1 0.4-0.3 0.4h-3.6v2.4zm1.6-4.7q0 0 0 0 0 0 0 0c0.8 0 1.4-0.3 1.9-0.8h0.1c0.4-0.5 0.7-1.2 0.7-2 0-0.7-0.3-1.4-0.8-1.9-0.5-0.5-1.2-0.8-1.9-0.8h-2.7v5.5z"/>
</svg>